<svg xmlns="http://www.w3.org/2000/svg" width="390" height="390" version="1.1"><path fill="#FEFEFE" d="M0 0 C128.7 0 257.4 0 390 0 C390 128.7 390 257.4 390 390 C261.3 390 132.6 390 0 390 C0 261.3 0 132.6 0 0 Z" transform="translate(0,0)"/><path fill="#13EFB1" d="M0 0 C0.74139221 -0.00040283 1.48278442 -0.00080566 2.24664307 -0.0012207 C35.48193525 0.10210791 66.37861032 10.91045742 91.8125 32.4375 C92.34439941 32.88432129 92.87629883 33.33114258 93.42431641 33.79150391 C120.77091402 57.06607738 137.06778525 89.02819713 141.5625 124.5 C143.3483149 149.50140862 139.16475598 173.59555167 128.8125 196.4375 C128.39774414 197.35764893 128.39774414 197.35764893 127.97460938 198.29638672 C119.34106118 217.12746108 107.43694838 234.35684116 95.8125 251.4375 C95.37260742 252.08428711 94.93271484 252.73107422 94.47949219 253.39746094 C91.27944508 258.09294704 88.05033915 262.76801734 84.8125 267.4375 C84.2035791 268.31599609 83.5946582 269.19449219 82.96728516 270.09960938 C74.77793936 281.90778526 66.54859933 293.68643105 58.24365234 305.41357422 C56.7802723 307.48307619 55.32120312 309.55555605 53.86328125 311.62890625 C48.08902271 319.83602216 42.26610976 328.00407233 36.35180664 336.11108398 C33.11063045 340.57164098 30.04666162 345.10289814 27.10498047 349.76757812 C26.46520264 350.59418945 26.46520264 350.59418945 25.8125 351.4375 C25.1525 351.4375 24.4925 351.4375 23.8125 351.4375 C23.77382813 349.766875 23.77382813 349.766875 23.734375 348.0625 C23.01086442 325.92454296 17.23771507 306.14857528 0.8125 290.4375 C0.2246875 289.81875 -0.363125 289.2 -0.96875 288.5625 C-14.08992189 275.67152411 -34.10588053 270.11596546 -51.92333984 270.12646484 C-59.30701262 270.26193171 -66.03965136 271.56821167 -73.1875 273.4375 C-74.85282908 273.77745286 -76.51931817 274.11183411 -78.1875 274.4375 C-87.44556438 261.2638385 -96.60078656 248.05987249 -105.1875 234.4375 C-105.70940918 233.61540039 -106.23131836 232.79330078 -106.76904297 231.94628906 C-130.27255074 194.86741995 -147.21804627 155.74573712 -137.5625 110.875 C-136.86432007 108.02970554 -136.05379552 105.23562781 -135.1875 102.4375 C-134.98914551 101.75091309 -134.79079102 101.06432617 -134.58642578 100.35693359 C-124.27841661 65.16865409 -99.91756424 35.57649355 -68.16015625 17.56640625 C-46.72228761 5.86376378 -24.44417407 -0.01368616 0 0 Z" transform="translate(201.1875,5.5625)"/><path fill="#FDFEFD" d="M0 0 C1.40039677 1.05029758 2.77483878 2.13586321 4.125 3.25 C4.95515625 3.90871094 5.7853125 4.56742188 6.640625 5.24609375 C17.49708409 14.36356912 24.95288185 27.10906755 27.125 41.25 C28.22919246 56.87857019 24.52035129 71.56810016 14.9140625 84.14453125 C12.73742573 86.62203419 10.49010071 88.95295974 8.125 91.25 C7.57328125 91.82234375 7.0215625 92.3946875 6.453125 92.984375 C-4.14527659 103.16303791 -20.06308916 106.68663216 -34.27734375 106.5234375 C-50.77613906 105.2694574 -65.07123369 97.44102646 -75.80859375 85.01171875 C-83.54999685 74.83968156 -87.05272447 62.68270835 -87.0625 50.0625 C-87.07474609 49.24974609 -87.08699219 48.43699219 -87.09960938 47.59960938 C-87.12077709 38.73033884 -85.33287693 31.20707618 -81.3125 23.3125 C-80.96171387 22.6222876 -80.61092773 21.9320752 -80.24951172 21.22094727 C-72.70363353 6.96113812 -60.86646939 -1.43044635 -45.875 -6.75 C-31.11473713 -10.98247011 -12.93228193 -8.06577862 0 0 Z" transform="translate(232.875,93.75)"/><path fill="#15EEB2" d="M0 0 C10.59739478 8.00315254 18.70757246 18.09839534 21.37841797 31.44580078 C23.1053563 43.97087803 23.60013395 59.78901043 18.6875 71.6875 C17.6975 72.1825 17.6975 72.1825 16.6875 72.6875 C15.4688154 70.96103016 14.25013854 69.23455486 13.03149414 67.50805664 C11.95268265 65.97980921 10.87374009 64.4516543 9.79467773 62.92358398 C7.08538929 59.08656744 4.37768049 55.24847414 1.67578125 51.40625 C-3.35582397 44.25602996 -8.42543672 37.13737945 -13.5625 30.0625 C-18.78155845 22.8634392 -23.91061755 15.60377738 -29 8.3125 C-30.04365723 6.82242432 -30.04365723 6.82242432 -31.10839844 5.30224609 C-31.75711914 4.36977051 -32.40583984 3.43729492 -33.07421875 2.4765625 C-33.65131592 1.64850098 -34.22841309 0.82043945 -34.82299805 -0.03271484 C-36.15859311 -2.07693492 -37.27688194 -4.10432265 -38.3125 -6.3125 C-24.86376686 -9.49977202 -11.49811559 -7.67693733 0 0 Z" transform="translate(177.3125,309.3125)"/><path fill="#3AE1B5" d="M0 0 C-2 1 -2 1 -4.35546875 0.36328125 C-8.58636365 -1.20652665 -12.46842888 -2.66902176 -16.3125 -5.0625 C-21.60301727 -8.28719624 -28.00783571 -8.8524323 -34 -10 C-36.48026387 -10.53662024 -38.95947299 -11.07814329 -41.4375 -11.625 C-66.37133481 -17.1004348 -94.37734331 -15.16501253 -117.98974609 -5.28686523 C-122.19122997 -3.53298221 -125.34391614 -2.61871439 -130 -3 C-126.6152444 -5.87320564 -122.93046284 -7.41508949 -118.8125 -8.9375 C-118.11777588 -9.19619873 -117.42305176 -9.45489746 -116.70727539 -9.72143555 C-79.4706695 -23.12994394 -34.18787391 -20.35856152 0 0 Z" transform="translate(271,23)"/><path fill="#C3FBF2" d="M0 0 C1.27166016 -0.01224609 2.54332031 -0.02449219 3.85351562 -0.03710938 C21.08339988 -0.06390546 21.08339988 -0.06390546 27.5625 5.1875 C26.95913818 5.11893799 26.35577637 5.05037598 25.73413086 4.97973633 C4.96378972 2.83769302 -17.26545886 2.32985885 -37.4375 8.1875 C-38.09089355 8.36941895 -38.74428711 8.55133789 -39.41748047 8.73876953 C-50.18848365 11.8001748 -60.29597482 16.50590247 -70.4375 21.1875 C-70.4375 20.1975 -70.4375 19.2075 -70.4375 18.1875 C-68.4575 17.8575 -66.4775 17.5275 -64.4375 17.1875 C-64.4375 16.1975 -64.4375 15.2075 -64.4375 14.1875 C-63.36371094 13.78917969 -62.28992188 13.39085937 -61.18359375 12.98046875 C-59.74736242 12.44540218 -58.31116638 11.91024086 -56.875 11.375 C-56.17052734 11.11396484 -55.46605469 10.85292969 -54.74023438 10.58398438 C-51.43629063 9.35071505 -48.21214489 8.08480977 -45 6.62109375 C-40.72198003 4.89956598 -36.51083578 3.95821799 -32 3.0625 C-31.19240234 2.89363281 -30.38480469 2.72476562 -29.55273438 2.55078125 C-19.60849186 0.51545684 -10.14663204 0.00512715 0 0 Z" transform="translate(202.4375,2.8125)"/><path fill="#38DFB1" d="M0 0 C1.09404518 3.33644983 0.89669485 5.7065788 0.1875 9.125 C0.01605469 9.99382812 -0.15539062 10.86265625 -0.33203125 11.7578125 C-1 14 -1 14 -3 16 C-5.39724316 25.05625193 -5.66376051 34.67661854 -6 44 C-6.02868164 44.74701172 -6.05736328 45.49402344 -6.08691406 46.26367188 C-6.49441995 58.48884864 -5.31798586 70.00368795 -3 82 C-2.87189941 82.68562012 -2.74379883 83.37124023 -2.61181641 84.07763672 C-1.08534634 92.32764274 -1.08534634 92.32764274 1.75 100.1875 C3 103 3 103 2 106 C-10.83976364 78.48106839 -14.09403968 44.29282604 -5 15 C-4.66331299 13.89978516 -4.66331299 13.89978516 -4.31982422 12.77734375 C-2.98275496 8.47928743 -1.54257984 4.22945046 0 0 Z" transform="translate(71,93)"/><path fill="#BEFBF0" d="M0 0 C5.2618019 5.2618019 6.27145142 15.3961929 6.4375 22.5625 C5.77782326 39.59040589 -0.76601432 54.15995304 -13 66 C-13.58652344 66.58394531 -14.17304688 67.16789062 -14.77734375 67.76953125 C-19.16243186 71.84508373 -24.34189088 75.01174837 -30 77 C-30.99 76.67 -31.98 76.34 -33 76 C-32.15115234 75.60167969 -32.15115234 75.60167969 -31.28515625 75.1953125 C-30.55167969 74.84210938 -29.81820312 74.48890625 -29.0625 74.125 C-28.33160156 73.77695313 -27.60070312 73.42890625 -26.84765625 73.0703125 C-24.83667541 72.1315023 -24.83667541 72.1315023 -24 70 C-22.68 70 -21.36 70 -20 70 C-20 69.01 -20 68.02 -20 67 C-17.525 66.01 -17.525 66.01 -15 65 C-15 64.34 -15 63.68 -15 63 C-14.34 63 -13.68 63 -13 63 C-13 62.34 -13 61.68 -13 61 C-12.34 61 -11.68 61 -11 61 C-10.773125 60.2575 -10.54625 59.515 -10.3125 58.75 C-9 56 -9 56 -6.5625 54.1875 C-1.12467908 49.54545775 -0.32792226 41.74896962 1 35 C1.33 35 1.66 35 2 35 C2.05905417 31.70841135 2.09394375 28.41696244 2.125 25.125 C2.14175781 24.2071875 2.15851563 23.289375 2.17578125 22.34375 C2.21523141 16.74182678 1.72157265 11.64358584 0.43310547 6.18701172 C0 4 0 4 0 0 Z" transform="translate(254,119)"/><path fill="#BFFDF1" d="M0 0 C0.99 0 1.98 0 3 0 C2.84144531 0.52464844 2.68289062 1.04929687 2.51953125 1.58984375 C2.0080047 3.28833797 1.49924057 4.98766495 0.9921875 6.6875 C0.25507456 9.1484125 -0.49081426 11.60595551 -1.2421875 14.0625 C-1.68251979 15.52076447 -2.12262323 16.97909806 -2.5625 18.4375 C-2.77221436 19.11611084 -2.98192871 19.79472168 -3.19799805 20.49389648 C-6.6013989 31.85692887 -7.36263704 42.83554027 -7.3125 54.625 C-7.3126712 55.37646301 -7.31284241 56.12792603 -7.3130188 56.90216064 C-7.30334012 66.84150063 -6.85787975 76.37784104 -4.55859375 86.0859375 C-4.02202274 88.88511214 -4.01982905 90.36457348 -5 93 C-9.49876661 88.50123339 -9.36706846 80.64617321 -9.625 74.5625 C-9.66222168 73.78245605 -9.69944336 73.00241211 -9.73779297 72.19873047 C-10.2464026 60.57571124 -10.118223 48.99670033 -9.625 37.375 C-9.57883545 36.13097412 -9.57883545 36.13097412 -9.53173828 34.86181641 C-9.29120323 29.95430257 -8.53557665 25.70337464 -7 21 C-6.59190414 19.66462521 -6.18573032 18.32866187 -5.78125 16.9921875 C-5.35506689 15.61951184 -4.92797621 14.24711766 -4.5 12.875 C-4.28730469 12.18535156 -4.07460937 11.49570313 -3.85546875 10.78515625 C-2.71374354 7.12182934 -1.48678165 3.53798966 0 0 Z" transform="translate(70,89)"/><path fill="#42DDB3" d="M0 0 C0 0.66 0 1.32 0 2 C0.5775 2.061875 1.155 2.12375 1.75 2.1875 C4.88778826 3.3205902 6.01689011 5.37717725 8 8 C8.99 8.66 9.98 9.32 11 10 C10.505 11.485 10.505 11.485 10 13 C9.61070312 12.57589844 9.22140625 12.15179688 8.8203125 11.71484375 C-1.57836013 0.81300955 -14.65555953 -6.65424618 -29.953125 -7.3359375 C-49.49685639 -7.66889258 -62.7444541 -2.56687219 -77 11 C-77.33 9.68 -77.66 8.36 -78 7 C-77.01 7 -76.02 7 -75 7 C-74.34 5.68 -73.68 4.36 -73 3 C-72.01 3 -71.02 3 -70 3 C-70 2.01 -70 1.02 -70 0 C-68.9275 -0.45375 -67.855 -0.9075 -66.75 -1.375 C-61.7806858 -3.30272753 -61.7806858 -3.30272753 -57.63671875 -6.48828125 C-44.49873051 -18.62289091 -12.2523943 -7.64182597 0 0 Z" transform="translate(237,94)"/><path fill="#32DFAF" d="M0 0 C4.23345479 1.51194814 5.85664857 4.15674915 8 8 C8.75 11.375 8.75 11.375 9 14 C9.66 14 10.32 14 11 14 C17.01347562 23.95333896 18.74641994 36.49960387 18 48 C18.66 48 19.32 48 20 48 C20.25652344 47.43539062 20.51304687 46.87078125 20.77734375 46.2890625 C22.14057613 43.73681273 23.75445796 41.63222159 25.5625 39.375 C28.0196581 36.33933997 28.0196581 36.33933997 30 33 C30.66 33 31.32 33 32 33 C30.4085285 37.92689081 27.52332215 41.61389867 24.4375 45.6875 C23.43495214 47.02380586 22.43359272 48.36100441 21.43359375 49.69921875 C20.99072021 50.28533936 20.54784668 50.87145996 20.09155273 51.4753418 C18.92281806 53.02349814 18.92281806 53.02349814 18 55 C17.34 55 16.68 55 16 55 C15.97421875 53.88625 15.9484375 52.7725 15.921875 51.625 C15.35236307 34.19908928 11.61324319 20.77580329 2.94433594 5.66601562 C1.89232299 3.81003416 0.92219397 1.92371645 0 0 Z" transform="translate(209,302)"/><path fill="#C5FCF1" d="M0 0 C5.1711115 4.54431011 8.44663108 10.15281368 12 16 C14.6564143 15.49518326 17.26598306 14.93044074 19.8828125 14.24609375 C35.89020786 10.25388792 51.65900087 10.6766491 67 17 C64 18 64 18 60.7890625 17.078125 C54.79294589 15.44955012 48.6463422 15.70179 42.48144531 15.73925781 C40.37275677 15.75001144 38.26491323 15.73930071 36.15625 15.7265625 C34.79947731 15.72788366 33.44270514 15.73044516 32.0859375 15.734375 C30.8695459 15.73663086 29.6531543 15.73888672 28.39990234 15.74121094 C24.94885502 16.00389298 22.23323613 16.80914587 19 18 C16.28938725 18.22663986 13.72851708 18.0940868 11 18 C10.67 17.01 10.34 16.02 10 15 C9.01 14.67 8.02 14.34 7 14 C5.19149218 11.9828182 4.1236472 10.52550059 3.5 7.875 C3.11426598 5.59876637 3.11426598 5.59876637 0 4 C0 2.68 0 1.36 0 0 Z" transform="translate(111,263)"/><path fill="#39E0B4" d="M0 0 C0.65484375 0.44730469 1.3096875 0.89460937 1.984375 1.35546875 C16.95292375 11.2710752 32.29391838 16.61783274 50.3125 13.125 C51.87877976 12.76611429 53.44157514 12.39159063 55 12 C55.79019531 11.80921875 56.58039063 11.6184375 57.39453125 11.421875 C59.2667427 10.96283892 61.13402689 10.48377081 63 10 C62 13 62 13 59.125 14.5625 C48.3191348 18.6883758 35.17057766 19.34260252 24 16 C24 15.34 24 14.68 24 14 C22.72125 13.855625 21.4425 13.71125 20.125 13.5625 C17.74307106 13.29357254 16.15547309 13.07773654 14 12 C14 11.34 14 10.68 14 10 C12.35 9.67 10.7 9.34 9 9 C9 8.34 9 7.68 9 7 C8.2575 6.896875 7.515 6.79375 6.75 6.6875 C3.78277013 5.94569253 2.19447117 5.11319446 0 3 C0 2.01 0 1.02 0 0 Z" transform="translate(163,185)"/><path fill="#3FDDB1" d="M0 0 C3 1 3 1 4.25 3.109375 C4.8275 3.73328125 5.405 4.3571875 6 5 C9.22652589 5.03265964 9.22652589 5.03265964 13 4.25 C20.93655034 3.06221095 28.7909839 2.66172161 36.8125 2.5625 C38.49182617 2.51174316 38.49182617 2.51174316 40.20507812 2.45996094 C47.44610862 2.41942482 52.81237408 3.69359994 59.3503418 6.82397461 C61.92313536 7.96588436 64.22938771 8.56128052 67 9 C67 9.66 67 10.32 67 11 C67.763125 10.938125 68.52625 10.87625 69.3125 10.8125 C72 11 72 11 73.4375 12.1875 C73.953125 12.785625 74.46875 13.38375 75 14 C76.96921941 15.70530341 78.98761472 17.3453721 81 19 C80.67 19.66 80.34 20.32 80 21 C79.3915625 20.57589844 78.783125 20.15179688 78.15625 19.71484375 C60.40020515 7.8339608 41.27415348 1.87880523 19.8359375 5.640625 C16.53108022 6.35029962 13.26961698 7.14493756 10 8 C8.33571633 8.34503442 6.66978918 8.68267844 5 9 C4.16094435 7.87926138 3.32892169 6.75325453 2.5 5.625 C2.0359375 4.99851562 1.571875 4.37203125 1.09375 3.7265625 C0 2 0 2 0 0 Z" transform="translate(118,271)"/><path fill="#4CDDB7" d="M0 0 C3.26991135 3.72710261 4.75518012 7.97431278 6.4375 12.5625 C6.74316895 13.39515381 7.04883789 14.22780762 7.36376953 15.08569336 C15.39652678 37.76854816 16.90691821 61.34919157 13 85 C12.67 85 12.34 85 12 85 C12.00523682 83.7632251 12.01047363 82.5264502 12.01586914 81.25219727 C12.03391561 76.68075275 12.04543071 72.10931141 12.05493164 67.5378418 C12.05997267 65.55606559 12.06680538 63.57429311 12.07543945 61.5925293 C12.08751515 58.75047891 12.09323045 55.90847753 12.09765625 53.06640625 C12.10281754 52.17474258 12.10797882 51.28307892 12.11329651 50.36439514 C12.11349177 48.24259399 12.0621003 46.1208922 12 44 C11.67 43.67 11.34 43.34 11 43 C10.6503697 41.4663276 10.34533014 39.92238472 10.0625 38.375 C9.48824413 35.36760072 8.85661909 32.50712811 8 29.5625 C7.13614831 26.48502836 6.60894216 23.58736916 6.125 20.4375 C5.31975821 15.70267826 3.68660561 12.98657607 1 9 C0.39068716 6.00792721 0.13545259 3.04768327 0 0 Z" transform="translate(328,83)"/><path fill="#3CDEB3" d="M0 0 C0.66 0 1.32 0 2 0 C0.68050333 3.61880172 -0.91493294 6.56696673 -3.1328125 9.7109375 C-3.76670898 10.61545654 -4.40060547 11.51997559 -5.05371094 12.4519043 C-5.73723633 13.41652588 -6.42076172 14.38114746 -7.125 15.375 C-8.57061184 17.43077912 -10.01591496 19.48677536 -11.4609375 21.54296875 C-12.58000488 23.13117432 -12.58000488 23.13117432 -13.72167969 24.75146484 C-15.9900488 27.98581111 -18.23684304 31.23404271 -20.4765625 34.48828125 C-21.19312012 35.52742676 -21.90967773 36.56657227 -22.64794922 37.63720703 C-24.02469534 39.63500796 -25.39882062 41.63461813 -26.77001953 43.63623047 C-27.39763184 44.5438916 -28.02524414 45.45155273 -28.671875 46.38671875 C-29.2194043 47.18295654 -29.76693359 47.97919434 -30.33105469 48.79956055 C-32.05840108 51.07699955 -33.93512979 53.02768323 -36 55 C-36 53.68 -36 52.36 -36 51 C-35.34 51 -34.68 51 -34 51 C-33.8453125 50.1646875 -33.8453125 50.1646875 -33.6875 49.3125 C-32.85821592 46.5230899 -31.65700944 44.3860936 -30 42 C-29.34 42 -28.68 42 -28 42 C-27.67 40.68 -27.34 39.36 -27 38 C-26.34 38 -25.68 38 -25 38 C-25 37.01 -25 36.02 -25 35 C-24.01 34.505 -24.01 34.505 -23 34 C-22.32558869 32.3364521 -21.6599679 30.66933058 -21 29 C-19.5 26.6875 -19.5 26.6875 -18 25 C-17.34 25 -16.68 25 -16 25 C-15.87625 24.360625 -15.7525 23.72125 -15.625 23.0625 C-15.315625 22.0415625 -15.315625 22.0415625 -15 21 C-14.34 20.67 -13.68 20.34 -13 20 C-11.87775145 18.11986894 -11.87775145 18.11986894 -10.875 15.9375 C-10.52179688 15.20402344 -10.16859375 14.47054688 -9.8046875 13.71484375 C-9.53914063 13.14894531 -9.27359375 12.58304687 -9 12 C-8.34 12 -7.68 12 -7 12 C-7 11.01 -7 10.02 -7 9 C-6.34 8.67 -5.68 8.34 -5 8 C-4.67 7.01 -4.34 6.02 -4 5 C-3.34 5 -2.68 5 -2 5 C-2 4.01 -2 3.02 -2 2 C-1.34 2 -0.68 2 0 2 C0 1.34 0 0.68 0 0 Z" transform="translate(295,255)"/><path fill="#C3FBF1" d="M0 0 C3.58203572 2.9307565 4.7333053 6.52271555 5.22314453 11.07275391 C5.34299629 13.46927032 5.37894774 15.85047125 5.375 18.25 C5.37556396 19.11665283 5.37612793 19.98330566 5.37670898 20.8762207 C5.00944119 42.99055881 5.00944119 42.99055881 0 48 C-2.3125 48.375 -2.3125 48.375 -5 48 C-7.375 45.75 -7.375 45.75 -9 43 C-8.67 41.68 -8.34 40.36 -8 39 C-6.02 41.31 -4.04 43.62 -2 46 C2.81423467 31.58595216 2.22770008 14.89325293 0 0 Z" transform="translate(197,335)"/><path fill="#CBFDF3" d="M0 0 C0.6484375 1.75390625 0.6484375 1.75390625 1 4 C0.1015625 5.90234375 0.1015625 5.90234375 -1.375 7.9375 C-1.93058594 8.72125 -2.48617188 9.505 -3.05859375 10.3125 C-4.01958984 11.6428125 -4.01958984 11.6428125 -5 13 C-6.09786468 14.58823101 -7.19558988 16.17656421 -8.2890625 17.76782227 C-11.98096471 23.13536461 -15.7246101 28.46659975 -19.4921875 33.78125 C-21.52973046 36.77949974 -23.51443307 39.73005571 -24.8125 43.125 C-26.58147395 45.91811676 -29.0353154 46.7110067 -32 48 C-30.52521498 43.70319391 -28.24112511 40.30483279 -25.5625 36.6875 C-24.65889886 35.44492382 -23.75660473 34.20139636 -22.85546875 32.95703125 C-22.3867334 32.31072754 -21.91799805 31.66442383 -21.43505859 30.99853516 C-19.0350392 27.6561468 -16.70259226 24.26806523 -14.375 20.875 C-13.91762451 20.20871582 -13.46024902 19.54243164 -12.98901367 18.85595703 C-9.42998327 13.65660028 -5.92983372 8.42013562 -2.4609375 3.16015625 C-1 1 -1 1 0 0 Z" transform="translate(303,247)"/><path fill="#35DEB1" d="M0 0 C2.96349504 5.02076081 2.33976436 10.26320782 2.3125 15.9375 C2.30839111 17.62262695 2.30839111 17.62262695 2.30419922 19.34179688 C2.20702505 27.05764945 1.98841227 34.76201064 -1 42 C-1.99 42.495 -1.99 42.495 -3 43 C-4.98526334 40.23348844 -6.96213361 37.46108482 -8.9375 34.6875 C-9.78344727 33.50897461 -9.78344727 33.50897461 -10.64648438 32.30664062 C-11.18466797 31.54931641 -11.72285156 30.79199219 -12.27734375 30.01171875 C-12.77484131 29.31522217 -13.27233887 28.61872559 -13.78491211 27.90112305 C-15 26 -15 26 -16 23 C-15.34 23 -14.68 23 -14 23 C-14 23.66 -14 24.32 -14 25 C-13.01 25.33 -12.02 25.66 -11 26 C-8.2332241 28.97172226 -8 29.74190625 -8 34 C-7.34 34 -6.68 34 -6 34 C-5.67 34.66 -5.34 35.32 -5 36 C-4.34 36 -3.68 36 -3 36 C-0.32942554 24.17687422 -0.35996464 12.06320538 0 0 Z" transform="translate(197,339)"/><path fill="#38DEB0" d="M0 0 C0.33 0.66 0.66 1.32 1 2 C-0.16864165 4.4387706 -1.39491448 6.72883376 -2.75 9.0625 C-3.15395996 9.76842285 -3.55791992 10.4743457 -3.97412109 11.20166016 C-10.71377526 22.83775382 -18.14497357 34.08875168 -26 45 C-27.24546405 42.50907189 -26.7767578 41.58919267 -26 39 C-25.34 39 -24.68 39 -24 39 C-23.7834375 37.824375 -23.7834375 37.824375 -23.5625 36.625 C-23 34 -23 34 -22 32 C-21.34 32 -20.68 32 -20 32 C-19.7525 31.29875 -19.505 30.5975 -19.25 29.875 C-17.82819762 26.60485452 -16.12753712 23.858878 -14 21 C-13.34 21 -12.68 21 -12 21 C-11.67 19.35 -11.34 17.7 -11 16 C-10.34 16 -9.68 16 -9 16 C-8.95875 15.195625 -8.9175 14.39125 -8.875 13.5625 C-7.67146141 8.66237859 -5.12129634 4.93266781 -2 1 C-1.34 0.67 -0.68 0.34 0 0 Z" transform="translate(324,210)"/><path fill="#3DE0B4" d="M0 0 C0.99 0.33 1.98 0.66 3 1 C2.45730469 1.9178125 1.91460937 2.835625 1.35546875 3.78125 C-5.98683262 16.32214007 -9.180362 26.15131633 -9.0625 40.875 C-9.05798828 41.94492188 -9.05347656 43.01484375 -9.04882812 44.1171875 C-9.03709749 46.74484986 -9.02068228 49.37239538 -9 52 C-12 50 -12 50 -12.67260742 48.12353516 C-14.28084432 37.69218205 -13.91477644 27.39048063 -9 18 C-8.38571814 16.69169941 -7.77821122 15.38020638 -7.17578125 14.06640625 C-5.47803206 10.36414811 -3.74652935 6.679486 -2 3 C-1.34 3 -0.68 3 0 3 C0 2.01 0 1.02 0 0 Z" transform="translate(156,105)"/><path fill="#43DDB6" d="M0 0 C0 0.66 0 1.32 0 2 C-0.99 2 -1.98 2 -3 2 C-3.04125 2.598125 -3.0825 3.19625 -3.125 3.8125 C-4.45581678 7.13954195 -6.78203451 7.50594459 -10 9 C-19.93434123 14.86964853 -19.93434123 14.86964853 -27.375 23.390625 C-29.26458434 26.42486139 -31.41811198 28.36336436 -34.125 30.6875 C-37.54550013 33.46449251 -37.54550013 33.46449251 -40 37 C-40.66 37 -41.32 37 -42 37 C-39.82685426 32.24427527 -36.52415961 28.80880327 -33 25 C-32.3503125 24.29617187 -31.700625 23.59234375 -31.03125 22.8671875 C-9.0656362 0 -9.0656362 0 0 0 Z" transform="translate(132,25)"/><path fill="#DCFEFA" d="M0 0 C-0.33 0.66 -0.66 1.32 -1 2 C-3.64190439 2.78256181 -6.26348029 3.47135074 -8.9375 4.125 C-18.17366477 6.5163155 -26.580516 10.10567764 -35.18994141 14.16552734 C-37.42738321 15.19703208 -39.69961056 16.11871132 -42 17 C-42 16.01 -42 15.02 -42 14 C-40.02 13.67 -38.04 13.34 -36 13 C-36 12.01 -36 11.02 -36 10 C-34.92621094 9.60167969 -33.85242188 9.20335937 -32.74609375 8.79296875 C-31.30986242 8.25790218 -29.87366638 7.72274086 -28.4375 7.1875 C-27.73302734 6.92646484 -27.02855469 6.66542969 -26.30273438 6.39648438 C-22.91879692 5.13335565 -19.57210203 3.83388103 -16.265625 2.37890625 C-13.58419857 1.24667715 -11.14117112 0.37972212 -8.3125 -0.25 C-7.58675781 -0.42015625 -6.86101562 -0.5903125 -6.11328125 -0.765625 C-3.81002545 -1.02106927 -2.19557035 -0.6938597 0 0 Z" transform="translate(174,7)"/><path fill="#CEFDF4" d="M0 0 C-0.1875 1.8125 -0.1875 1.8125 -1 4 C-2.65365406 5.02137457 -4.32376502 6.01612294 -6 7 C-9.25961669 9.98980502 -12.26947192 13.22998392 -15.3125 16.4375 C-17 18 -17 18 -19 18 C-19.17015625 18.63808594 -19.3403125 19.27617188 -19.515625 19.93359375 C-19.75796875 20.75988281 -20.0003125 21.58617188 -20.25 22.4375 C-20.59804687 23.67306641 -20.59804687 23.67306641 -20.953125 24.93359375 C-22 27 -22 27 -24.109375 27.78515625 C-24.73328125 27.85605469 -25.3571875 27.92695312 -26 28 C-23.30940297 16.63970144 -13.79545357 7.44775314 -4.3203125 1.24609375 C-2 0 -2 0 0 0 Z" transform="translate(177,92)"/><path fill="#3CDDB0" d="M0 0 C0.66 0 1.32 0 2 0 C3.35278115 1.98689731 4.68568305 3.98745218 6 6 C6.66 6.33 7.32 6.66 8 7 C9.57548683 9.62581138 10 10.87099787 10 14 C10.66 14 11.32 14 12 14 C12.268125 14.969375 12.53625 15.93875 12.8125 16.9375 C13.204375 17.948125 13.59625 18.95875 14 20 C14.99 20.33 15.98 20.66 17 21 C18.03432904 22.98246398 19.03238392 24.98413316 20 27 C20.98165594 28.01801357 21.97591432 29.0246803 23 30 C23 30.66 23 31.32 23 32 C23.66 32 24.32 32 25 32 C27.1875 34.8125 27.1875 34.8125 29 38 C28.67 38.99 28.34 39.98 28 41 C20.46956208 31.11712161 13.20607837 21.10784124 6.25048828 10.81201172 C4.9309735 8.89997762 3.55949652 7.03190596 2.18359375 5.16015625 C0 2 0 2 0 0 Z" transform="translate(143,308)"/><path fill="#D0FEF6" d="M0 0 C0.33 0 0.66 0 1 0 C1.01417969 0.825 1.02835938 1.65 1.04296875 2.5 C1.58407069 15.60344157 5.21449269 27.20078959 11.1796875 38.86328125 C12 41 12 41 11 44 C4.43483024 36.12179629 -0.167686 24.81752842 -0.09765625 14.453125 C-0.09443359 13.60878906 -0.09121094 12.76445312 -0.08789062 11.89453125 C-0.07951172 11.02183594 -0.07113281 10.14914063 -0.0625 9.25 C-0.05798828 8.36183594 -0.05347656 7.47367188 -0.04882812 6.55859375 C-0.037074 4.37232671 -0.02064249 2.18619821 0 0 Z" transform="translate(146,134)"/><path fill="#D3FEF9" d="M0 0 C-1.37142419 7.82926976 -9.86932006 14.47862354 -16 19 C-19.22073273 20.9410666 -22.43376491 22.78380615 -26 24 C-26.99 23.67 -27.98 23.34 -29 23 C-28.43410156 22.73445313 -27.86820313 22.46890625 -27.28515625 22.1953125 C-26.55167969 21.84210938 -25.81820312 21.48890625 -25.0625 21.125 C-24.33160156 20.77695313 -23.60070312 20.42890625 -22.84765625 20.0703125 C-20.83667541 19.1315023 -20.83667541 19.1315023 -20 17 C-18.68 17 -17.36 17 -16 17 C-16 16.01 -16 15.02 -16 14 C-14.35 13.34 -12.7 12.68 -11 12 C-11 11.34 -11 10.68 -11 10 C-10.34 10 -9.68 10 -9 10 C-9 9.34 -9 8.68 -9 8 C-8.34 8 -7.68 8 -7 8 C-6.731875 7.236875 -6.46375 6.47375 -6.1875 5.6875 C-4.80876015 2.56719402 -3.66285015 0 0 0 Z" transform="translate(250,172)"/><path fill="#D3FEF7" d="M0 0 C0.99 0 1.98 0 3 0 C2.01494745 3.33823363 1.01041295 6.66937954 0 10 C-0.22526367 10.75571289 -0.45052734 11.51142578 -0.68261719 12.29003906 C-1.44556293 14.84216739 -2.22194668 17.38994075 -3 19.9375 C-3.2489502 20.77837158 -3.49790039 21.61924316 -3.75439453 22.4855957 C-4.00044434 23.28312256 -4.24649414 24.08064941 -4.5 24.90234375 C-4.7165625 25.61898193 -4.933125 26.33562012 -5.15625 27.07397461 C-6.10263196 29.23427765 -7.24547813 30.44804011 -9 32 C-8.67104266 26.46444193 -8.113891 21.53419523 -5.96484375 16.359375 C-4.63701674 13.11238103 -3.48188775 9.80637356 -2.3125 6.5 C-1.87550781 5.2728125 -1.43851562 4.045625 -0.98828125 2.78125 C-0.66214844 1.8634375 -0.33601563 0.945625 0 0 Z" transform="translate(70,89)"/><path fill="#C0FCF0" d="M0 0 C8.5449641 9.74468686 7.50457293 25.89024959 7 38 C7.66 38.33 8.32 38.66 9 39 C7.68 38.67 6.36 38.34 5 38 C4.94392578 36.09927734 4.94392578 36.09927734 4.88671875 34.16015625 C4.82100207 32.46091069 4.75455677 30.7616932 4.6875 29.0625 C4.66494141 28.23169922 4.64238281 27.40089844 4.61914062 26.54492188 C4.39445671 21.29548862 3.49353705 16.93162907 1.68823242 12.00219727 C0.82353578 9.48663246 0.49895876 7.08521437 0.3125 4.4375 C0.24675781 3.59058594 0.18101562 2.74367188 0.11328125 1.87109375 C0.07589844 1.25363281 0.03851563 0.63617188 0 0 Z" transform="translate(218,319)"/><path fill="#40DEB4" d="M0 0 C2.82721284 2.82721284 2.3147176 4.96142949 2.37963867 8.83203125 C2.37810791 9.75371094 2.37657715 10.67539063 2.375 11.625 C2.37411377 12.56472656 2.37322754 13.50445312 2.37231445 14.47265625 C2.20764297 24.32954026 1.10561568 35.87968494 -5 44 C-5.99 44 -6.98 44 -8 44 C-6.90778051 40.45028666 -5.60869847 37.14994906 -4 33.8125 C0.81482389 22.96118049 0.23014498 11.62232157 0 0 Z" transform="translate(259,130)"/><path fill="#C5FDF3" d="M0 0 C1.38445312 -0.00483398 1.38445312 -0.00483398 2.796875 -0.00976562 C7.18920082 0.02524567 10.24618699 0.08741443 14.125 2.3125 C13.43462646 2.32708252 12.74425293 2.34166504 12.03295898 2.35668945 C8.8756034 2.43160617 5.71925499 2.52812217 2.5625 2.625 C1.47646484 2.64755859 0.39042969 2.67011719 -0.72851562 2.69335938 C-6.92782845 2.90063123 -11.32286119 3.59426538 -16.875 6.3125 C-19.30859375 6.60546875 -19.30859375 6.60546875 -21.3125 6.5 C-23.0759375 6.4071875 -23.0759375 6.4071875 -24.875 6.3125 C-17.62968303 0.41368525 -9.0302483 -0.16171648 0 0 Z" transform="translate(201.875,85.6875)"/><path fill="#C2FBEE" d="M0 0 C0.33 0 0.66 0 1 0 C1.08333357 4.8333472 0.95261487 9.23692563 0 14 C-0.66 14 -1.32 14 -2 14 C-1.87625 14.9590625 -1.87625 14.9590625 -1.75 15.9375 C-2.25883261 22.17069944 -5.71943252 27.78091538 -9 33 C-9.68096422 34.32608822 -10.35330586 35.65686601 -11 37 C-11.66 37 -12.32 37 -13 37 C-11.65448676 32.74664772 -10.03038517 28.74768236 -8.1875 24.6875 C-4.69525647 16.66477839 -2.3060583 8.42833696 0 0 Z" transform="translate(339,173)"/><path fill="#CEFEF7" d="M0 0 C1.98 0 3.96 0 6 0 C2.40189293 2.95962596 -1.31588069 5.5985609 -5.1875 8.1875 C-11.27874775 12.32019209 -16.67022655 16.91084838 -22 22 C-22.33 21.01 -22.66 20.02 -23 19 C-21.6875 17.5 -21.6875 17.5 -20 16 C-19.01 16 -18.02 16 -17 16 C-17 15.01 -17 14.02 -17 13 C-15.625 11.3125 -15.625 11.3125 -14 10 C-13.34 10 -12.68 10 -12 10 C-12 9.34 -12 8.68 -12 8 C-11.01 8 -10.02 8 -9 8 C-9 7.34 -9 6.68 -9 6 C-6.03 4.68 -3.06 3.36 0 2 C0 1.34 0 0.68 0 0 Z" transform="translate(126,24)"/><path fill="#40DBAF" d="M0 0 C0.66 0 1.32 0 2 0 C5 4.38461538 5 4.38461538 5 7 C5.99 7.33 6.98 7.66 8 8 C9.03515625 9.79296875 9.03515625 9.79296875 10.0625 12.1875 C12.59665093 17.56484466 15.8130458 22.16355234 19.34594727 26.9128418 C22.22174307 30.80164466 24.80177674 34.68262627 27 39 C26.67 39.66 26.34 40.32 26 41 C23.57983895 37.39493615 21.16304304 33.78764418 18.74902344 30.1784668 C17.93153158 28.95718254 17.11320462 27.73645675 16.29394531 26.51635742 C0 2.24558507 0 2.24558507 0 0 Z" transform="translate(88,226)"/><path fill="#3BDDB0" d="M0 0 C-0.53167292 7.03388903 -2.08795467 13.15455191 -4.375 19.8125 C-4.67921875 20.73998047 -4.9834375 21.66746094 -5.296875 22.62304688 C-6.76301798 26.9682185 -8.08089262 30.40784482 -11 34 C-10.71122471 32.6452138 -10.41879283 31.29120698 -10.125 29.9375 C-9.96257812 29.18339844 -9.80015625 28.42929688 -9.6328125 27.65234375 C-9.15989152 25.67016259 -8.62320098 23.70300172 -8.0546875 21.74609375 C-7.29241602 19.03861838 -6.61001714 16.37369088 -6 13.6328125 C-5.835 12.89289063 -5.67 12.15296875 -5.5 11.390625 C-5.16173272 9.85785138 -4.82853799 8.32395093 -4.5 6.7890625 C-4.06176991 4.84441646 -3.53763949 2.91954099 -3 1 C-1 0 -1 0 0 0 Z" transform="translate(340,168)"/><path fill="#3FDDB3" d="M0 0 C0.66 0 1.32 0 2 0 C0.4085285 4.92689081 -2.47667785 8.61389867 -5.5625 12.6875 C-6.56504786 14.02380586 -7.56640728 15.36100441 -8.56640625 16.69921875 C-9.00927979 17.28533936 -9.45215332 17.87145996 -9.90844727 18.4753418 C-11.07718194 20.02349814 -11.07718194 20.02349814 -12 22 C-12.66 22 -13.32 22 -14 22 C-14 17.38 -14 12.76 -14 8 C-13.01 8.495 -13.01 8.495 -12 9 C-12 10.98 -12 12.96 -12 15 C-11.34 15 -10.68 15 -10 15 C-9.61521484 14.15308594 -9.61521484 14.15308594 -9.22265625 13.2890625 C-7.85942387 10.73681273 -6.24554204 8.63222159 -4.4375 6.375 C-1.9803419 3.33933997 -1.9803419 3.33933997 0 0 Z" transform="translate(239,335)"/><path fill="#C0FDF1" d="M0 0 C0.33 0 0.66 0 1 0 C2.29807181 6.70271194 2.18603982 13.37055416 2.18530273 20.16723633 C2.18749026 22.42743742 2.20568291 24.68715057 2.22460938 26.94726562 C2.22754391 28.40104002 2.2295283 29.8548167 2.23046875 31.30859375 C2.23457764 32.61626709 2.23868652 33.92394043 2.24291992 35.27124023 C1.98344489 39.25411671 1.3480741 42.25923513 0 46 C-0.99 46.495 -0.99 46.495 -2 47 C-1.855625 45.95328125 -1.71125 44.9065625 -1.5625 43.828125 C0.28584793 29.22090474 0.20569187 14.70380389 0 0 Z" transform="translate(342,125)"/><path fill="#E8FFFD" d="M0 0 C0.99 0 1.98 0 3 0 C5.44313537 9.8675676 5.23035146 19.6045697 5.125 29.6875 C5.11494678 31.37173945 5.10582508 33.05598473 5.09765625 34.74023438 C5.07583596 38.82696937 5.04143636 42.91341875 5 47 C4.67 47 4.34 47 4 47 C3.67 34.79 3.34 22.58 3 10 C2.34 10 1.68 10 1 10 C0.67 6.7 0.34 3.4 0 0 Z" transform="translate(340,115)"/><path fill="#D0FEF8" d="M0 0 C-0.556875 0.52207031 -1.11375 1.04414062 -1.6875 1.58203125 C-6.94268912 6.65080319 -11.31669462 11.90450472 -15.46875 17.91015625 C-15.9740625 18.59980469 -16.479375 19.28945312 -17 20 C-17.33 20 -17.66 20 -18 20 C-18 18.35 -18 16.7 -18 15 C-17.34 15 -16.68 15 -16 15 C-15.9175 14.443125 -15.835 13.88625 -15.75 13.3125 C-14.76390566 10.27204246 -13.11413782 8.37039695 -11 6 C-10.34 5.67 -9.68 5.34 -9 5 C-8.67 4.01 -8.34 3.02 -8 2 C-3.63934426 -1.21311475 -3.63934426 -1.21311475 0 0 Z" transform="translate(103,47)"/><path fill="#B9FCEF" d="M0 0 C1.39538254 -0.05472088 2.79140897 -0.09311538 4.1875 -0.125 C4.96480469 -0.14820313 5.74210938 -0.17140625 6.54296875 -0.1953125 C9 0 9 0 11.29492188 1 C14.30494286 2.11272978 16.53919787 2.2295273 19.73828125 2.1953125 C20.80498047 2.18886719 21.87167969 2.18242187 22.97070312 2.17578125 C24.07349609 2.15902344 25.17628906 2.14226562 26.3125 2.125 C27.43462891 2.11597656 28.55675781 2.10695312 29.71289062 2.09765625 C32.47547909 2.07414486 35.23762932 2.04128155 38 2 C31.35191823 6.43205451 20.57202437 6.07525654 12.94287109 4.60302734 C8.57589776 3.5774579 4.2838033 2.32720877 0 1 C0 0.67 0 0.34 0 0 Z" transform="translate(180,195)"/><path fill="#CBFDF5" d="M0 0 C0.99 0 1.98 0 3 0 C1.23465356 4.84015316 -1.19536725 9.2835127 -3.625 13.8125 C-4.04523438 14.60076172 -4.46546875 15.38902344 -4.8984375 16.20117188 C-5.9300009 18.13535326 -6.96391172 20.06823983 -8 22 C-8.33 22 -8.66 22 -9 22 C-9.50610724 15.92671312 -8.04157942 12.22771463 -5 7 C-4.34 7 -3.68 7 -3 7 C-2.814375 5.824375 -2.814375 5.824375 -2.625 4.625 C-2 2 -2 2 0 0 Z" transform="translate(82,67)"/><path fill="#3FE0B6" d="M0 0 C0.33 0.66 0.66 1.32 1 2 C-1.66604437 8.2207702 -7.55276527 12.51246516 -13.1875 15.9375 C-16.02525206 17.00953967 -17.99734715 17.26493996 -21 17 C-18.32884207 14.94850258 -15.60127143 13.10223692 -12.75 11.3125 C-7.88351161 8.10852671 -3.95889134 4.25014493 0 0 Z" transform="translate(247,178)"/><path fill="#C3FCF3" d="M0 0 C1.47906892 -0.02689216 2.95827483 -0.04634621 4.4375 -0.0625 C5.26121094 -0.07410156 6.08492187 -0.08570313 6.93359375 -0.09765625 C9 0 9 0 10 1 C11.53529607 1.32352982 13.07874517 1.60872651 14.625 1.875 C19.14039276 2.74957392 22.93349376 3.83696477 27 6 C27.33 6.99 27.66 7.98 28 9 C25.8125 8.34375 25.8125 8.34375 23.625 7.6875 C22.71234375 7.41421875 21.7996875 7.1409375 20.859375 6.859375 C19.03529316 6.31115368 17.2122572 5.75943184 15.390625 5.203125 C10.28933782 3.65055934 5.18443758 2.24810534 0 1 C0 0.67 0 0.34 0 0 Z" transform="translate(231,8)"/><path fill="#43DFB4" d="M0 0 C1.0873354 2.11099801 2.09136106 4.2184875 3.0078125 6.41015625 C5.72303366 12.85643307 9.0864204 18.22788538 13.328125 23.78515625 C15 26 15 26 16 28 C12.68765616 26.83620352 10.1101781 25.88761214 8 23 C8 21.68 8 20.36 8 19 C7.34 19 6.68 19 6 19 C1.98727572 12.50320831 -0.8759457 7.73752038 0 0 Z" transform="translate(147,157)"/><path fill="#41DCB4" d="M0 0 C0.99 0 1.98 0 3 0 C0.95209156 4.2673108 -1.63913266 8.04283338 -4.3125 11.9375 C-4.78623047 12.64068359 -5.25996094 13.34386719 -5.74804688 14.06835938 C-8.53487762 18.13614106 -11.38920994 21.63913712 -15 25 C-14.690625 24.236875 -14.38125 23.47375 -14.0625 22.6875 C-13.32106407 20.81210323 -12.63771783 18.91315348 -12 17 C-11.34 17 -10.68 17 -10 17 C-10 16.01 -10 15.02 -10 14 C-9.01 13.34 -8.02 12.68 -7 12 C-6.67 11.01 -6.34 10.02 -6 9 C-5.34 9 -4.68 9 -4 9 C-4 7.68 -4 6.36 -4 5 C-3.01 4.34 -2.02 3.68 -1 3 C-0.67 2.01 -0.34 1.02 0 0 Z" transform="translate(256,310)"/><path fill="#BDFCF1" d="M0 0 C4.92991345 -0.28999491 8.09251769 -0.19703098 12 3 C12 3.99 12 4.98 12 6 C12.94875 6.309375 13.8975 6.61875 14.875 6.9375 C18 8 18 8 20 9 C20.625 12.0625 20.625 12.0625 21 15 C20.030625 14.13375 19.06125 13.2675 18.0625 12.375 C12.54444545 7.65163485 6.83674136 3.54278801 0 1 C0 0.67 0 0.34 0 0 Z" transform="translate(167,304)"/><path fill="#C7FEF3" d="M0 0 C8.99605687 1.38026143 16.4860392 6.92030325 23 13 C22.01 13.495 22.01 13.495 21 14 C20.01 13.67 19.02 13.34 18 13 C18 12.34 18 11.68 18 11 C17.21625 10.690625 16.4325 10.38125 15.625 10.0625 C13 9 13 9 11 8 C11 7.34 11 6.68 11 6 C8.03 5.505 8.03 5.505 5 5 C4.67 4.01 4.34 3.02 4 2 C1.99983534 0.79117904 1.99983534 0.79117904 0 0 Z" transform="translate(178,281)"/><path fill="#47D5AF" d="M0 0 C0.66 0 1.32 0 2 0 C2 0.66 2 1.32 2 2 C2.99 2.33 3.98 2.66 5 3 C7.7667759 5.97172226 8 6.74190625 8 11 C8.66 11 9.32 11 10 11 C10.28875 11.639375 10.5775 12.27875 10.875 12.9375 C11.82823451 15.15206079 11.82823451 15.15206079 14 16 C14.33 14.35 14.66 12.7 15 11 C16.0326802 13.78823655 16.04509293 14.8677274 15.0625 17.75 C14.711875 18.4925 14.36125 19.235 14 20 C10.1950683 16.54177937 7.54480364 12.58188753 4.75 8.3125 C4.29109375 7.62349609 3.8321875 6.93449219 3.359375 6.22460938 C0 1.14055525 0 1.14055525 0 0 Z" transform="translate(181,362)"/><path fill="#41DDB2" d="M0 0 C2.6802909 1.34014545 2.98740968 2.73976534 4.25 5.4375 C6.05720873 9.19713958 8.02358266 12.72305523 10.25 16.25 C12.45682181 19.83750006 13.77401365 22.70625937 14 27 C10.07539793 22.54355933 7.47613209 17.6053697 4.75 12.375 C4.29109375 11.51648438 3.8321875 10.65796875 3.359375 9.7734375 C2.92625 8.9484375 2.493125 8.1234375 2.046875 7.2734375 C1.65338867 6.52497559 1.25990234 5.77651367 0.85449219 5.00537109 C0 3 0 3 0 0 Z" transform="translate(74,199)"/><path fill="#44DEB6" d="M0 0 C7.99876715 4.87729704 13.61596754 11.40713371 19 19 C18.01 19 17.02 19 16 19 C16 18.34 16 17.68 16 17 C15.01 16.67 14.02 16.34 13 16 C13 15.34 13 14.68 13 14 C12.34 14 11.68 14 11 14 C10.62875 13.29875 10.2575 12.5975 9.875 11.875 C7.61821234 8.41459225 5.04626773 6.69751182 1.64453125 4.4296875 C1.10183594 3.95789062 0.55914062 3.48609375 0 3 C0 2.01 0 1.02 0 0 Z" transform="translate(294,40)"/><path fill="#4DD9B7" d="M0 0 C0.71542969 -0.01224609 1.43085938 -0.02449219 2.16796875 -0.03710938 C5.95320209 -0.04772218 7.64867012 0.03661341 10.875 2.1875 C4.275 2.1875 -2.325 2.1875 -9.125 2.1875 C-9.455 3.5075 -9.785 4.8275 -10.125 6.1875 C-11.625 4.8125 -11.625 4.8125 -13.125 3.1875 C-13.125 2.5275 -13.125 1.8675 -13.125 1.1875 C-8.75478682 0.11636932 -4.47442701 0.00407507 0 0 Z" transform="translate(152.125,301.8125)"/><path fill="#31DEAE" d="M0 0 C0 0.33 0 0.66 0 1 C-2.66622447 1.48173829 -5.33293671 1.96044625 -8 2.4375 C-8.74378906 2.57220703 -9.48757812 2.70691406 -10.25390625 2.84570312 C-15.15756564 3.71983371 -20.05264526 4.42093462 -25 5 C-25 4.34 -25 3.68 -25 3 C-16.51168642 0.43056454 -8.85406634 -0.38558031 0 0 Z" transform="translate(204,84)"/><path fill="#CDFDF6" d="M0 0 C1.32 0 2.64 0 4 0 C4.33 1.65 4.66 3.3 5 5 C5.66 5 6.32 5 7 5 C9.40111951 6.74626874 10.79115208 8.11027389 11.48046875 11.046875 C11.72235729 13.02405086 11.86749963 15.0124945 12 17 C9.15117747 13.48388571 6.41751228 9.9054798 3.75 6.25 C3.04359375 5.28578125 2.3371875 4.3215625 1.609375 3.328125 C0 1 0 1 0 0 Z" transform="translate(311,56)"/><path fill="#C9FEF5" d="M0 0 C2 1 2 1 3.125 3.375 C4 6 4 6 4 9 C4.66 9 5.32 9 6 9 C8.42811925 14.82748619 8.61727907 20.7757491 9 27 C7.60769953 24.33108092 6.4816775 21.70147805 5.52734375 18.84765625 C5.26759766 18.07099609 5.00785156 17.29433594 4.74023438 16.49414062 C4.47533203 15.69169922 4.21042969 14.88925781 3.9375 14.0625 C3.66873047 13.26392578 3.39996094 12.46535156 3.12304688 11.64257812 C1.84164714 7.78559689 0.65825358 4.02266079 0 0 Z" transform="translate(331,87)"/><path fill="#C2FCF2" d="M0 0 C2.475 0.495 2.475 0.495 5 1 C5 1.99 5 2.98 5 4 C5.99 4 6.98 4 8 4 C9.01866229 5.65532623 10.01810813 7.32260138 11 9 C11.99 9.33 12.98 9.66 14 10 C14.33 10.99 14.66 11.98 15 13 C11.02516221 11.63981615 8.36405801 9.86828717 5.25 7.0625 C4.08210937 6.02802734 4.08210937 6.02802734 2.890625 4.97265625 C1 3 1 3 0 0 Z" transform="translate(158,178)"/><path fill="#48E1B9" d="M0 0 C1.09404518 3.33644983 0.89669485 5.7065788 0.1875 9.125 C0.01605469 9.99382812 -0.15539062 10.86265625 -0.33203125 11.7578125 C-1 14 -1 14 -3 16 C-3.60713803 17.85483454 -4.14131052 19.73421385 -4.625 21.625 C-4.88539062 22.62789062 -5.14578125 23.63078125 -5.4140625 24.6640625 C-5.60742188 25.43492188 -5.80078125 26.20578125 -6 27 C-7.12037359 23.66319373 -6.86585193 21.67338431 -5.8203125 18.33984375 C-5.55089844 17.46392578 -5.28148438 16.58800781 -5.00390625 15.68554688 C-4.71386719 14.77869141 -4.42382812 13.87183594 -4.125 12.9375 C-3.84269531 12.02677734 -3.56039062 11.11605469 -3.26953125 10.17773438 C-2.21104573 6.7740262 -1.12719842 3.38159527 0 0 Z" transform="translate(71,93)"/><path fill="#C9FEF5" d="M0 0 C-2.89514194 1.29322032 -5.79123484 2.58429741 -8.6875 3.875 C-9.50412109 4.23980469 -10.32074219 4.60460937 -11.16210938 4.98046875 C-15.08196222 6.72615221 -18.9969644 8.45096382 -23 10 C-23 9.01 -23 8.02 -23 7 C-21.02 6.67 -19.04 6.34 -17 6 C-17 5.01 -17 4.02 -17 3 C-15.80375 2.71125 -14.6075 2.4225 -13.375 2.125 C-10.72568925 1.47322267 -8.26539418 0.73665074 -5.6875 -0.1875 C-3 -1 -3 -1 0 0 Z" transform="translate(155,14)"/><path fill="#C7FDF3" d="M0 0 C1.58409994 0.11487748 3.16728963 0.24234508 4.75 0.375 C6.07257813 0.47941406 6.07257813 0.47941406 7.421875 0.5859375 C12.13739735 1.34327897 14.8806884 3.43507246 18 7 C18 7.66 18 8.32 18 9 C13.64029169 7.65150163 9.68658562 5.95092154 5.625 3.875 C4.56539063 3.33617187 3.50578125 2.79734375 2.4140625 2.2421875 C1.61742187 1.83226563 0.82078125 1.42234375 0 1 C0 0.67 0 0.34 0 0 Z" transform="translate(259,17)"/><path fill="#C6FEF4" d="M0 0 C-0.19921875 1.8046875 -0.19921875 1.8046875 -1 4 C-3.14453125 5.6328125 -3.14453125 5.6328125 -5.8125 7.125 C-6.68519531 7.62257812 -7.55789062 8.12015625 -8.45703125 8.6328125 C-9.29621094 9.08398438 -10.13539063 9.53515625 -11 10 C-11.70511719 10.40992188 -12.41023437 10.81984375 -13.13671875 11.2421875 C-15 12 -15 12 -18 11 C-17.43410156 10.73445312 -16.86820313 10.46890625 -16.28515625 10.1953125 C-15.55167969 9.84210938 -14.81820312 9.48890625 -14.0625 9.125 C-12.96615234 8.60292969 -12.96615234 8.60292969 -11.84765625 8.0703125 C-9.83667541 7.1315023 -9.83667541 7.1315023 -9 5 C-7.68 5 -6.36 5 -5 5 C-5 4.01 -5 3.02 -5 2 C-2 0 -2 0 0 0 Z" transform="translate(239,184)"/><path fill="#3CDCB4" d="M0 0 C4.49220708 0.54491269 7.79956041 1.68152387 11.75 3.875 C12.69359375 4.38804687 13.6371875 4.90109375 14.609375 5.4296875 C17 7 17 7 19 10 C14.37324343 8.6077541 10.35313769 6.70479016 6.125 4.375 C4.97257813 3.74335938 3.82015625 3.11171875 2.6328125 2.4609375 C1.32957031 1.73777344 1.32957031 1.73777344 0 1 C0 0.67 0 0.34 0 0 Z" transform="translate(163,304)"/><path fill="#C0FCEF" d="M0 0 C0.33 0.66 0.66 1.32 1 2 C-3.65832738 14.50393138 -3.65832738 14.50393138 -8.25 17.4375 C-8.8275 17.623125 -9.405 17.80875 -10 18 C-8.47146065 13.72813475 -6.28490519 10.00673137 -3.875 6.1875 C-3.50246094 5.59001953 -3.12992187 4.99253906 -2.74609375 4.37695312 C-1.8342952 2.91573749 -0.91764024 1.45755415 0 0 Z" transform="translate(321,218)"/><path fill="#BFFDF1" d="M0 0 C0.33 0 0.66 0 1 0 C1.06058594 0.98742187 1.12117187 1.97484375 1.18359375 2.9921875 C1.26738281 4.27351562 1.35117188 5.55484375 1.4375 6.875 C1.51871094 8.15117187 1.59992188 9.42734375 1.68359375 10.7421875 C1.79206027 13.88300152 1.79206027 13.88300152 3 16 C3.07033769 17.87379605 3.0843022 19.75001102 3.0625 21.625 C3.05347656 22.62789062 3.04445312 23.63078125 3.03515625 24.6640625 C3.02355469 25.43492187 3.01195312 26.20578125 3 27 C0.73528429 22.77253067 -0.13003282 19.24485701 -0.09765625 14.453125 C-0.09443359 13.60878906 -0.09121094 12.76445312 -0.08789062 11.89453125 C-0.07951172 11.02183594 -0.07113281 10.14914063 -0.0625 9.25 C-0.05798828 8.36183594 -0.05347656 7.47367188 -0.04882812 6.55859375 C-0.037074 4.37232671 -0.02064249 2.18619821 0 0 Z" transform="translate(146,134)"/><path fill="#C2FDF1" d="M0 0 C4.21814817 3.9700218 7.61227103 8.30840284 11 13 C10.67 13.66 10.34 14.32 10 15 C6.40521424 11.50792241 2.99752225 8.02524416 0 4 C0 2.68 0 1.36 0 0 Z" transform="translate(161,336)"/><path fill="#C0FCF0" d="M0 0 C4.13621084 3.3810038 7.81316569 6.66590534 11 11 C10.67 11.66 10.34 12.32 10 13 C6.13322435 11.533292 4.99014441 9.52798328 3 6 C2.34 5.67 1.68 5.34 1 5 C0.375 2.4375 0.375 2.4375 0 0 Z" transform="translate(201,295)"/><path fill="#DAFEF8" d="M0 0 C0.99 0 1.98 0 3 0 C3.66 4.62 4.32 9.24 5 14 C4.34 13.67 3.68 13.34 3 13 C3 12.01 3 11.02 3 10 C2.34 10 1.68 10 1 10 C0.67 6.7 0.34 3.4 0 0 Z" transform="translate(340,115)"/><path fill="#44DDB6" d="M0 0 C3.08539112 2.72412697 5.11188908 6.09188781 7.25 9.5625 C7.81460937 10.44711914 7.81460937 10.44711914 8.390625 11.34960938 C9.3260331 12.86105004 10.17093646 14.42771031 11 16 C10.67 16.66 10.34 17.32 10 18 C9.34 17.67 8.68 17.34 8 17 C7.690625 15.845 7.38125 14.69 7.0625 13.5 C6.711875 12.345 6.36125 11.19 6 10 C5.01 9.67 4.02 9.34 3 9 C0 2.88888889 0 2.88888889 0 0 Z" transform="translate(317,65)"/><path fill="#45DFB8" d="M0 0 C0.33 0.66 0.66 1.32 1 2 C-0.1446875 3.5159375 -0.1446875 3.5159375 -1.3125 5.0625 C-3.14206594 7.59297007 -4.49832955 9.96493676 -5.625 12.875 C-6.07875 13.90625 -6.5325 14.9375 -7 16 C-7.99 16.33 -8.98 16.66 -10 17 C-8.57394582 13.07297642 -6.70550338 9.75380481 -4.4375 6.25 C-3.81746094 5.28578125 -3.19742188 4.3215625 -2.55859375 3.328125 C-1 1 -1 1 0 0 Z" transform="translate(89,62)"/><path fill="#37E3B6" d="M0 0 C0 3 0 3 -1.35546875 4.6484375 C-1.96003906 5.21820313 -2.56460938 5.78796875 -3.1875 6.375 C-3.82429688 6.98214844 -4.46109375 7.58929688 -5.1171875 8.21484375 C-5.73851563 8.80394531 -6.35984375 9.39304687 -7 10 C-7.94011913 10.97665226 -8.87801705 11.95545355 -9.8125 12.9375 C-12 15 -12 15 -14 15 C-10.87058824 8.51764706 -10.87058824 8.51764706 -7.6875 6.625 C-4.63886885 4.78164163 -2.4399795 2.5794069 0 0 Z" transform="translate(104,47)"/><path fill="#5BD8B9" d="M0 0 C0.99 0.495 0.99 0.495 2 1 C2 3.64 2 6.28 2 9 C2.66 9 3.32 9 4 9 C3.34 10.65 2.68 12.3 2 14 C1.34 14 0.68 14 0 14 C0 9.38 0 4.76 0 0 Z" transform="translate(225,343)"/><path fill="#C2FDF2" d="M0 0 C0.59765625 1.84765625 0.59765625 1.84765625 1 4 C-1.65454672 8.14109288 -5.19224939 10.97110747 -9 14 C-7.65070536 10.16336928 -5.92248975 7.34827431 -3.375 4.1875 C-2.42753906 3.00220703 -2.42753906 3.00220703 -1.4609375 1.79296875 C-0.97882813 1.20128906 -0.49671875 0.60960937 0 0 Z" transform="translate(263,305)"/><path fill="#E3FEFC" d="M0 0 C-0.66 0 -1.32 0 -2 0 C-2 0.66 -2 1.32 -2 2 C-8.69675136 3.03026944 -15.2314676 3.10152799 -22 3 C-22 2.67 -22 2.34 -22 2 C-20.86820313 1.86722656 -19.73640625 1.73445312 -18.5703125 1.59765625 C-17.08851821 1.4194658 -15.60674864 1.24106971 -14.125 1.0625 C-13.00544922 0.93198242 -13.00544922 0.93198242 -11.86328125 0.79882812 C-1.52744391 -0.45823317 -1.52744391 -0.45823317 0 0 Z" transform="translate(223,195)"/><path fill="#34E3B4" d="M0 0 C1 3 1 3 0.22265625 5.04296875 C-0.16019531 5.75066406 -0.54304688 6.45835937 -0.9375 7.1875 C-1.31777344 7.90292969 -1.69804687 8.61835938 -2.08984375 9.35546875 C-2.54037109 10.16951172 -2.54037109 10.16951172 -3 11 C-3.99 11 -4.98 11 -6 11 C-4.94124926 7.59687262 -3.99097846 4.98646769 -2 2 C-1.34 2 -0.68 2 0 2 C0 1.34 0 0.68 0 0 Z" transform="translate(257,163)"/><path fill="#C2FDF1" d="M0 0 C5.15464734 0.48324819 8.81550319 3.18610761 13 6 C11 7 11 7 8.65234375 6.328125 C7.75644531 5.97234375 6.86054688 5.6165625 5.9375 5.25 C5.03902344 4.90453125 4.14054688 4.5590625 3.21484375 4.203125 C1 3 1 3 0 0 Z" transform="translate(223,90)"/><path fill="#C8FDF5" d="M0 0 C4.32001266 0.48000141 6.27322191 1.61503409 9 5 C10.25 7.75 10.25 7.75 11 10 C9.72390677 9.09066991 8.45434447 8.17217147 7.1875 7.25 C6.47980469 6.73953125 5.77210938 6.2290625 5.04296875 5.703125 C2.97022309 3.97517642 1.52624146 2.21473524 0 0 Z" transform="translate(291,36)"/><path fill="#BFFCF0" d="M0 0 C2.37616467 2.37616467 3.04068181 4.35349521 4.1875 7.5 C4.55230469 8.4796875 4.91710937 9.459375 5.29296875 10.46875 C6 13 6 13 5 15 C4.34 14.67 3.68 14.34 3 14 C3 13.01 3 12.02 3 11 C2.34 11 1.68 11 1 11 C0.67 7.37 0.34 3.74 0 0 Z" transform="translate(66,182)"/><path fill="#C9FEF4" d="M0 0 C2.63978826 3.18595135 5.10498388 6.30970546 7 10 C6.67 10.66 6.34 11.32 6 12 C5.34 11.67 4.68 11.34 4 11 C4 10.34 4 9.68 4 9 C3.01 8.67 2.02 8.34 1 8 C0.67 5.36 0.34 2.72 0 0 Z" transform="translate(83,219)"/><path fill="#45DCB4" d="M0 0 C5.91577376 2.74660925 10.90479475 5.93467666 16 10 C15.01 10.495 15.01 10.495 14 11 C11.875 10.0625 11.875 10.0625 10 9 C10 8.34 10 7.68 10 7 C8.02 6.34 6.04 5.68 4 5 C4 4.34 4 3.68 4 3 C2.68 2.67 1.36 2.34 0 2 C0 1.34 0 0.68 0 0 Z" transform="translate(272,24)"/><path fill="#46DEB6" d="M0 0 C3.32983051 2.69557708 4.54451694 6.04940313 6 10 C6 11.32 6 12.64 6 14 C5.34 14 4.68 14 4 14 C3.566875 12.63875 3.566875 12.63875 3.125 11.25 C2.1371082 8.1278968 2.1371082 8.1278968 0.875 5.875 C0 4 0 4 0 0 Z" transform="translate(191,325)"/><path fill="#BDFDF0" d="M0 0 C2.33697029 2.33697029 3.27094054 4.49097899 4.625 7.5 C5.29402344 8.96953125 5.29402344 8.96953125 5.9765625 10.46875 C7 13 7 13 7 15 C6.34 15 5.68 15 5 15 C1.65405342 9.81917949 0.43173504 6.15222436 0 0 Z" transform="translate(72,197)"/><path fill="#C0FDEE" d="M0 0 C0.64453125 1.765625 0.64453125 1.765625 1 4 C0.07421875 5.921875 0.07421875 5.921875 -1.3125 7.75 C-1.98732422 8.67039063 -1.98732422 8.67039063 -2.67578125 9.609375 C-3.11277344 10.06828125 -3.54976563 10.5271875 -4 11 C-4.66 11 -5.32 11 -6 11 C-4.54955729 6.89041233 -2.48889248 3.56741255 0 0 Z" transform="translate(310,236)"/><path fill="#C2FDF3" d="M0 0 C0.66 0 1.32 0 2 0 C2.99 1.98 3.98 3.96 5 6 C5.66 6 6.32 6 7 6 C7.33 8.64 7.66 11.28 8 14 C5.66635648 11.07096942 3.95039164 8.11431797 2.3125 4.75 C1.65701172 3.41195312 1.65701172 3.41195312 0.98828125 2.046875 C0.66214844 1.37140625 0.33601563 0.6959375 0 0 Z" transform="translate(323,73)"/><path fill="#C0FDF4" d="M0 0 C0.99 0.33 1.98 0.66 3 1 C-0.3 3.97 -3.6 6.94 -7 10 C-7.33 9.01 -7.66 8.02 -8 7 C-6.6875 5.5 -6.6875 5.5 -5 4 C-4.01 4 -3.02 4 -2 4 C-2 3.01 -2 2.02 -2 1 C-1.34 0.67 -0.68 0.34 0 0 Z" transform="translate(111,36)"/><path fill="#B5FBEE" d="M0 0 C2.475 0.495 2.475 0.495 5 1 C5 1.66 5 2.32 5 3 C5.8353125 3.3403125 5.8353125 3.3403125 6.6875 3.6875 C9.63246684 5.35896766 11.68156544 7.55276352 14 10 C10.67312232 8.45315734 7.75296022 6.54045021 4.75 4.4375 C3.85796875 3.81746094 2.9659375 3.19742187 2.046875 2.55859375 C1.37140625 2.04425781 0.6959375 1.52992187 0 1 C0 0.67 0 0.34 0 0 Z" transform="translate(277,26)"/><path fill="#C4FCF1" d="M0 0 C0.75 1.6875 0.75 1.6875 1 4 C-1.13381449 7.2769294 -2.25018012 8.75006004 -6 10 C-4.6302836 6.00499382 -2.74277578 3.19990508 0 0 Z" transform="translate(233,347)"/><path fill="#CBFDF5" d="M0 0 C4.98862849 -0.29344873 7.96229058 -0.05887078 12 3 C12 3.33 12 3.66 12 4 C7.12335991 4.34833144 4.22949995 3.41685712 0 1 C0 0.67 0 0.34 0 0 Z" transform="translate(167,304)"/><path fill="#41DFB6" d="M0 0 C1.06528748 2.73019786 1.07998186 3.79298812 0.00390625 6.578125 C-0.47175781 7.45984375 -0.94742188 8.3415625 -1.4375 9.25 C-1.91058594 10.14203125 -2.38367188 11.0340625 -2.87109375 11.953125 C-3.24363281 12.62859375 -3.61617188 13.3040625 -4 14 C-4.66 14 -5.32 14 -6 14 C-4.50829734 9.0276578 -2.39542583 4.58154261 0 0 Z" transform="translate(78,79)"/><path fill="#1FE9B1" d="M0 0 C0.66 0.33 1.32 0.66 2 1 C-1.63 4.63 -5.26 8.26 -9 12 C-9.33 11.01 -9.66 10.02 -10 9 C-6.7 6.03 -3.4 3.06 0 0 Z" transform="translate(115,37)"/><path fill="#3DDBB3" d="M0 0 C7.66742597 5.96583144 7.66742597 5.96583144 9 11 C8.01 10.34 7.02 9.68 6 9 C6 8.34 6 7.68 6 7 C5.38125 6.71125 4.7625 6.4225 4.125 6.125 C2 5 2 5 0 3 C0 2.01 0 1.02 0 0 Z" transform="translate(182,314)"/><path fill="#BEFCEF" d="M0 0 C0.75 1.6875 0.75 1.6875 1 4 C-1.13381449 7.2769294 -2.25018012 8.75006004 -6 10 C-4.6302836 6.00499382 -2.74277578 3.19990508 0 0 Z" transform="translate(303,247)"/><path fill="#39DFB0" d="M0 0 C0.66 0 1.32 0 2 0 C2 0.66 2 1.32 2 2 C2.99 2.33 3.98 2.66 5 3 C8 6.44444444 8 6.44444444 8 9 C7.01 9 6.02 9 5 9 C3.35 6.03 1.7 3.06 0 0 Z" transform="translate(181,362)"/><path fill="#B9FDEF" d="M0 0 C2.93200474 2.85276137 5.64315404 5.65079784 8 9 C7.67 9.66 7.34 10.32 7 11 C4.66666667 8.66666667 2.33333333 6.33333333 0 4 C0 2.68 0 1.36 0 0 Z" transform="translate(176,357)"/><path fill="#C3FCF4" d="M0 0 C3.39417765 3.12621626 5.6062718 5.56541027 7 10 C6.01 9.67 5.02 9.34 4 9 C4 8.34 4 7.68 4 7 C3.01 6.67 2.02 6.34 1 6 C0.67 4.02 0.34 2.04 0 0 Z" transform="translate(138,303)"/><path fill="#BCFBEF" d="M0 0 C0.33 0 0.66 0 1 0 C1 2.97 1 5.94 1 9 C0.01 9 -0.98 9 -2 9 C-2.33 9.99 -2.66 10.98 -3 12 C-2.49202991 7.6822542 -1.80317221 3.96697886 0 0 Z" transform="translate(150,120)"/><path fill="#C8FDF3" d="M0 0 C0.6875 1.75 0.6875 1.75 1 4 C-0.25 6.25 -0.25 6.25 -2 8 C-2.99 8 -3.98 8 -5 8 C-3.62845496 5.04590299 -2.01136276 2.55991624 0 0 Z" transform="translate(246,329)"/><path fill="#3DD9AD" d="M0 0 C2.94956528 1.36944102 5.52468811 2.87830409 8 5 C8 5.66 8 6.32 8 7 C8.66 7 9.32 7 10 7 C9.67 7.99 9.34 8.98 9 10 C7.49702124 8.52386015 5.99768715 7.04400843 4.5 5.5625 C3.6646875 4.73878906 2.829375 3.91507812 1.96875 3.06640625 C0 1 0 1 0 0 Z" transform="translate(199,292)"/><path fill="#BDFCF0" d="M0 0 C5.23175837 -0.38281159 8.37802694 0.78145293 13 3 C9.85174359 4.0494188 9.01298497 3.98655124 5.9375 3.1875 C5.24527344 3.01605469 4.55304688 2.84460938 3.83984375 2.66796875 C2 2 2 2 0 0 Z" transform="translate(165,277)"/><path fill="#CAFDF6" d="M0 0 C1.32 0 2.64 0 4 0 C4 0.99 4 1.98 4 3 C4.99 3.33 5.98 3.66 7 4 C6.67 5.32 6.34 6.64 6 8 C4.02 5.36 2.04 2.72 0 0 Z" transform="translate(304,48)"/><path fill="#C0FCF0" d="M0 0 C0.33 1.32 0.66 2.64 1 4 C0.38125 4.2475 -0.2375 4.495 -0.875 4.75 C-3.35068687 6.20628639 -3.95125002 7.37812506 -5 10 C-5 6.60406522 -4.47834052 5.93380119 -2.5 3.3125 C-2.0359375 2.68988281 -1.571875 2.06726563 -1.09375 1.42578125 C-0.7328125 0.95527344 -0.371875 0.48476563 0 0 Z" transform="translate(270,295)"/><path fill="#43DDB2" d="M0 0 C0.66 0 1.32 0 2 0 C2.33 1.32 2.66 2.64 3 4 C3.66 4 4.32 4 5 4 C5.33 6.31 5.66 8.62 6 11 C3.13546142 7.58983503 1.65296434 4.09305456 0 0 Z" transform="translate(215,312)"/><path fill="#B9FCEE" d="M0 0 C3.08089673 2.77280706 4.68775452 5.06326356 6 9 C5.01 9 4.02 9 3 9 C3 7.68 3 6.36 3 5 C2.01 4.67 1.02 4.34 0 4 C0 2.68 0 1.36 0 0 Z" transform="translate(90,231)"/><path fill="#B9FCEF" d="M0 0 C0.8125 1.6875 0.8125 1.6875 1 4 C-1.1613627 6.51185394 -3.01962439 8.50981219 -6 10 C-4.6302836 6.00499382 -2.74277578 3.19990508 0 0 Z" transform="translate(240,337)"/><path fill="#C3FEF2" d="M0 0 C3.0916909 2.52956528 3.90931332 5.22454612 5 9 C2 8 2 8 0.8125 6.1875 C0 4 0 4 0 0 Z" transform="translate(213,310)"/><path fill="#B7FDEF" d="M0 0 C3.39417765 3.12621626 5.6062718 5.56541027 7 10 C5.82174642 9.09827532 4.65768423 8.17798498 3.5 7.25 C2.8503125 6.73953125 2.200625 6.2290625 1.53125 5.703125 C0 4 0 4 0 0 Z" transform="translate(145,313)"/><path fill="#B4FBED" d="M0 0 C3.39417765 3.12621626 5.6062718 5.56541027 7 10 C5.82174642 9.09827532 4.65768423 8.17798498 3.5 7.25 C2.8503125 6.73953125 2.200625 6.2290625 1.53125 5.703125 C0 4 0 4 0 0 Z" transform="translate(111,263)"/><path fill="#35DFB0" d="M0 0 C5.875 3.625 5.875 3.625 7 7 C4.50638429 5.79618552 2.31856917 4.54571278 0 3 C0 2.01 0 1.02 0 0 Z" transform="translate(163,185)"/><path fill="#24E8B3" d="M0 0 C0.95465783 2.16967689 1.14401212 3.56328793 0.3984375 5.82421875 C-0.35870385 7.5684743 -1.17609198 9.28627131 -2 11 C-2.33 11 -2.66 11 -3 11 C-2.67 8.03 -2.34 5.06 -2 2 C-1.34 2 -0.68 2 0 2 C0 1.34 0 0.68 0 0 Z" transform="translate(74,91)"/><path fill="#ADF8E9" d="M0 0 C1.43655854 -0.08131463 2.8744483 -0.13933559 4.3125 -0.1875 C5.51326172 -0.23970703 5.51326172 -0.23970703 6.73828125 -0.29296875 C9.47851584 0.06198392 10.29171079 0.89366282 12 3 C3.96428571 2.19642857 3.96428571 2.19642857 0 0 Z" transform="translate(231,8)"/><path fill="#D4FEF7" d="M0 0 C3.86107457 2.57404971 3.94319692 4.61020259 5 9 C2.5 6.75 2.5 6.75 0 4 C0 2.68 0 1.36 0 0 Z" transform="translate(188,374)"/><path fill="#CAFDF7" d="M0 0 C1.32 0 2.64 0 4 0 C4.33 2.31 4.66 4.62 5 7 C2.47411298 4.63707344 1.11179163 3.33537489 0 0 Z" transform="translate(188,319)"/><path fill="#E6FFFC" d="M0 0 C0.33 0 0.66 0 1 0 C1.26252625 4.33168317 0.29243536 7.8803623 -1 12 C-1.33 12 -1.66 12 -2 12 C-2.05422947 10.5629191 -2.09289723 9.12524538 -2.125 7.6875 C-2.14820313 6.88699219 -2.17140625 6.08648437 -2.1953125 5.26171875 C-2 3 -2 3 0 0 Z" transform="translate(342,169)"/><path fill="#35DEB1" d="M0 0 C0.95465783 2.16967689 1.14401212 3.56328793 0.3984375 5.82421875 C-0.35870385 7.5684743 -1.17609198 9.28627131 -2 11 C-2.95465783 8.83032311 -3.14401212 7.43671207 -2.3984375 5.17578125 C-1.64129615 3.4315257 -0.82390802 1.71372869 0 0 Z" transform="translate(148,121)"/><path fill="#D2FEF7" d="M0 0 C2.375 0.25 2.375 0.25 5 1 C6.3125 3.0625 6.3125 3.0625 7 5 C3.34683329 3.75023244 2.21934164 3.32901247 0 0 Z" transform="translate(252,12)"/></svg>