<?xml version="1.0" standalone="no"?>
<!DOCTYPE svg PUBLIC "-//W3C//DTD SVG 20010904//EN"
 "http://www.w3.org/TR/2001/REC-SVG-20010904/DTD/svg10.dtd">
<svg version="1.0" xmlns="http://www.w3.org/2000/svg"
 width="256.000000pt" height="256.000000pt" viewBox="0 0 256.000000 256.000000"
 preserveAspectRatio="xMidYMid meet">

<g transform="translate(0.000000,256.000000) scale(0.100000,-0.100000)"
fill="#000000" stroke="none">
<path d="M1246 2122 c-2 -4 -29 -21 -58 -36 -39 -21 -63 -43 -93 -87 -32 -47
-44 -58 -60 -54 -11 3 -74 9 -141 12 -117 6 -194 -5 -194 -27 0 -5 -10 -12
-21 -15 -17 -6 -31 2 -63 36 -76 81 -187 121 -247 89 -24 -13 -25 -61 -4 -180
17 -99 19 -150 5 -150 -6 0 -15 -11 -20 -25 -5 -14 -14 -25 -19 -25 -6 0 -22
-25 -36 -55 -26 -54 -27 -55 -69 -55 -49 0 -66 -13 -66 -51 0 -27 0 -28 55
-22 l55 6 0 -32 c0 -19 6 -34 15 -37 22 -9 18 -32 -6 -36 -27 -4 -44 -30 -36
-52 5 -12 19 -16 54 -16 l48 -1 27 -55 27 -55 -46 -20 c-24 -10 -53 -19 -63
-19 -25 0 -49 -50 -39 -78 10 -27 23 -28 40 -2 13 18 34 25 142 47 28 5 79
-14 129 -48 14 -11 39 -19 55 -19 49 0 57 -12 34 -51 -11 -19 -27 -63 -36 -99
-9 -36 -20 -81 -25 -100 -5 -19 -10 -83 -10 -142 0 -99 2 -109 24 -132 13 -15
27 -26 31 -26 4 0 16 -11 27 -25 25 -32 29 -31 65 5 l30 31 6 -41 c12 -93 64
-116 128 -56 20 18 39 40 43 47 4 8 26 49 49 93 l43 78 134 -1 c232 -2 470
-14 470 -23 0 -5 -5 -28 -11 -52 -8 -34 -8 -50 5 -80 14 -35 18 -37 53 -34 28
2 41 9 49 26 25 50 34 48 34 -4 0 -121 113 -109 158 15 7 20 15 106 18 191 5
120 11 165 25 199 11 24 19 51 19 60 0 20 71 101 88 101 7 0 12 5 12 10 0 6 6
10 13 10 7 0 18 9 24 19 7 11 28 25 49 31 20 7 45 21 55 31 11 11 27 19 37 19
10 0 29 11 42 25 13 14 31 25 41 25 11 0 26 18 40 48 12 26 27 50 32 54 25 16
43 240 26 318 -12 55 -17 64 -49 79 -41 21 -86 10 -96 -23 -4 -12 -13 -25 -20
-31 -8 -6 -18 -46 -23 -94 -6 -58 -14 -89 -25 -97 -9 -6 -16 -16 -16 -21 0 -5
-11 -20 -25 -33 -14 -13 -25 -27 -25 -32 0 -18 -44 -68 -60 -68 -9 0 -55 -22
-101 -50 -46 -27 -88 -50 -93 -50 -5 0 -30 23 -55 50 -45 49 -48 51 -115 57
-53 5 -70 10 -73 23 -3 13 -18 19 -54 22 -27 3 -51 7 -54 9 -2 3 -1 23 2 47
l6 42 64 0 c68 0 103 12 103 35 0 23 -35 35 -104 35 l-66 0 0 68 c0 57 -4 74
-24 101 -14 19 -28 46 -31 61 -8 35 -79 94 -106 87 -15 -4 -19 0 -19 23 0 16
-4 32 -10 35 -5 3 -10 18 -10 32 0 58 -23 156 -41 174 -19 19 -64 26 -73 11z
m52 -99 c6 -27 13 -75 17 -108 9 -97 12 -102 55 -109 26 -4 39 -12 43 -26 3
-11 12 -20 21 -20 8 0 22 -17 31 -37 9 -21 21 -46 26 -55 5 -10 9 -49 9 -88
l0 -70 -86 0 c-92 0 -124 -10 -124 -39 0 -37 24 -44 121 -36 l92 7 -6 -24 c-4
-12 -7 -29 -7 -35 0 -9 -16 -13 -47 -13 -72 0 -93 -8 -93 -36 0 -23 3 -24 60
-24 45 0 60 -4 60 -14 0 -27 -12 -45 -26 -39 -17 6 -44 -14 -44 -33 0 -7 7
-20 16 -28 13 -14 14 -18 1 -30 -27 -28 -82 -56 -109 -56 -14 0 -28 -6 -30
-12 -9 -25 -504 -8 -640 21 -59 13 -93 43 -78 70 14 27 -11 47 -39 32 -43 -24
-66 -14 -88 38 l-20 48 33 12 c28 10 34 18 34 40 0 30 -29 48 -48 29 -19 -19
-65 -4 -83 27 -27 46 -24 51 34 50 46 0 52 2 55 22 3 18 -3 23 -35 29 -64 11
-74 20 -61 52 7 15 23 38 35 51 13 13 23 28 23 34 0 6 7 19 16 29 14 14 17 38
16 123 -1 58 -6 114 -12 125 -23 43 -14 53 42 47 40 -5 58 -13 77 -36 15 -16
36 -34 48 -40 13 -6 23 -18 23 -25 0 -8 8 -24 18 -35 l17 -22 47 37 47 36 138
-5 c76 -3 152 -9 168 -12 26 -5 33 -1 55 30 14 20 31 42 38 50 6 7 12 18 12
23 0 6 20 22 44 36 24 14 46 32 50 41 3 8 14 15 25 15 15 0 21 -11 29 -47z
m1084 -373 c7 0 9 -47 6 -142 -4 -141 -13 -180 -45 -201 -7 -4 -13 -14 -13
-21 0 -15 -85 -76 -106 -76 -22 0 -73 -28 -120 -66 -23 -19 -45 -34 -50 -34
-5 0 -27 -18 -49 -40 -22 -21 -47 -39 -56 -40 -21 0 -29 -20 -29 -73 0 -23 -8
-55 -17 -72 -12 -21 -20 -66 -25 -155 -11 -199 -21 -262 -40 -274 -9 -5 -19
-8 -22 -6 -7 8 -9 304 -1 322 21 51 -24 78 -50 29 -8 -17 -19 -31 -23 -31 -4
0 -23 -14 -42 -30 l-35 -31 -333 2 c-184 1 -337 -2 -342 -7 -4 -5 -13 -27 -20
-48 -15 -48 -49 -106 -61 -106 -5 0 -9 -6 -9 -13 0 -7 -8 -22 -18 -33 -10 -10
-21 -27 -25 -37 -3 -9 -13 -17 -22 -17 -24 0 -21 129 4 161 38 49 39 112 3
121 -32 9 -50 -10 -58 -60 -4 -29 -16 -56 -30 -71 -13 -13 -24 -27 -24 -32 0
-5 -9 -13 -20 -19 -16 -8 -26 -7 -45 7 -23 17 -24 23 -25 119 0 133 12 199 51
276 5 10 9 26 9 37 0 37 18 40 185 29 236 -14 380 -8 430 19 22 12 52 25 68
28 15 3 27 12 27 20 0 7 10 17 21 20 12 4 32 19 44 32 17 20 25 24 41 16 67
-35 82 -41 106 -47 35 -8 58 2 58 25 0 13 -19 27 -65 49 -35 16 -74 30 -85 30
-16 0 -21 5 -18 23 3 21 7 22 121 25 115 3 118 2 155 -25 20 -15 49 -41 64
-57 24 -26 31 -28 71 -23 28 4 56 16 73 32 15 14 34 25 42 25 33 0 172 104
172 129 0 12 23 42 60 77 22 21 25 34 29 106 4 86 29 145 59 133 7 -3 18 -5
24 -5z m-622 -1005 c0 -22 -6 -33 -22 -40 -13 -6 -27 -24 -33 -42 -15 -52 -25
-39 -25 32 0 60 2 65 24 71 14 3 27 13 31 22 5 14 7 14 15 2 6 -8 10 -29 10
-45z"/>
<path d="M748 1603 c-38 -10 -13 -133 27 -133 20 0 45 40 45 72 0 16 -9 37
-20 48 -20 20 -22 21 -52 13z"/>
<path d="M1080 1568 c-25 -42 -25 -47 5 -81 34 -39 58 -32 69 20 7 34 5 48 -8
68 -22 34 -42 32 -66 -7z"/>
<path d="M913 1404 c-3 -8 2 -23 11 -32 15 -15 17 -15 32 0 21 21 11 48 -16
48 -11 0 -23 -7 -27 -16z"/>
<path d="M790 1243 c0 -39 14 -64 41 -78 35 -18 86 -19 119 -1 21 11 30 10 53
-1 15 -7 27 -18 27 -23 0 -6 15 -10 34 -10 43 0 86 33 86 66 0 25 -1 25 -54
19 -47 -6 -58 -4 -85 16 -26 19 -34 21 -56 11 -14 -6 -25 -16 -25 -22 0 -5
-15 -10 -34 -10 -25 0 -40 7 -54 25 -23 29 -52 33 -52 8z"/>
</g>
</svg>
